<svg xmlns="http://www.w3.org/2000/svg" xmlns:xlink="http://www.w3.org/1999/xlink" width="38" height="38" viewBox="0 0 38 38"><defs><path id="2czqa" d="M740.813 474.447c-2.892 0-5.707-.837-8.143-2.359-.228-.152-.532-.228-.837-.228-.152 0-.304 0-.456.076l-4.947 1.674 1.674-4.947a1.534 1.534 0 0 0-.152-1.293 15.193 15.193 0 0 1 4.794-21.004 15.15 15.15 0 0 1 20.928 4.718c4.49 7.078 2.36 16.514-4.718 21.004a15.375 15.375 0 0 1-8.143 2.36zm0-33.484c-10.121 0-18.264 8.219-18.264 18.264 0 3.196.837 6.316 2.435 9.132l-2.359 7.154c-.228.76.152 1.674.99 1.902.304.076.684.076.989 0l7.153-2.36c8.752 5.024 19.938 2.056 24.961-6.62 5.023-8.751 2.055-19.938-6.62-24.96a18.5 18.5 0 0 0-9.285-2.512z"/><path id="2czqb" d="M747.662 460.749c-1.294 0-2.283-.99-2.283-2.283 0-1.294.99-2.283 2.283-2.283 1.294 0 2.283.99 2.283 2.283 0 1.294-.99 2.283-2.283 2.283zm-15.981-2.283c0-1.294.99-2.283 2.283-2.283 1.294 0 2.283.99 2.283 2.283 0 1.294-.99 2.283-2.283 2.283-1.294 0-2.283-.99-2.283-2.283zm15.981 5.327a5.294 5.294 0 0 0 5.327-5.327 5.294 5.294 0 0 0-5.327-5.327c-2.968 0-5.327 2.435-5.327 5.327 0 .761.152 1.522.533 2.283h-4.11c1.294-2.663.153-5.86-2.511-7.077-2.663-1.218-5.86-.153-7.077 2.511-1.294 2.664-.153 5.86 2.511 7.077.685.305 1.522.533 2.283.533z"/></defs><g><g transform="translate(-722 -440)"><g><use fill="#6d6b6b" xlink:href="#2czqa"/><use fill="#fff" fill-opacity="0" stroke="#e6e5e5" stroke-miterlimit="50" xlink:href="#2czqa"/></g><g><use fill="#6d6b6b" xlink:href="#2czqb"/><use fill="#fff" fill-opacity="0" stroke="#e6e5e5" stroke-miterlimit="50" xlink:href="#2czqb"/></g></g></g></svg>