<svg xmlns="http://www.w3.org/2000/svg" xmlns:xlink="http://www.w3.org/1999/xlink" width="43" height="41" viewBox="0 0 43 41"><defs><path id="kt98a" d="M1048.593 347c-.757.046-1.476.066-2.189.143-.667.071-1.322.228-1.809.745-.278.296-.545.606-.786.932-1.026 1.39-1.67 2.967-2.178 4.601-.795 2.55-1.188 5.177-1.394 7.83-.322 4.127-.301 8.251.147 12.37.285 2.614.774 5.185 1.727 7.65.549 1.422 1.262 2.748 2.237 3.931.427.518.96.808 1.598.936.288.057.58.1.873.126.446.039.89.056 1.335.056.973 0 1.944-.082 2.913-.196.585-.069 1.167-.149 1.703-.423.93-.478 1.435-1.404 1.254-2.344-.459-2.387-.923-4.774-1.39-7.16-.054-.279-.113-.565-.23-.821-.359-.782-1.028-1.217-1.823-1.422-1.331-.342-2.676-.634-4.018-.933-.173-.038-.254-.105-.285-.273-.11-.595-.256-1.184-.335-1.783-.28-2.138-.258-4.285-.127-6.43.076-1.237.258-2.46.59-3.66.061-.224.167-.333.405-.386 1.217-.264 2.434-.534 3.643-.834 1.244-.31 2.053-1.006 2.286-2.366.407-2.37.909-4.724 1.373-7.085a2.024 2.024 0 0 0-.297-1.539c-.49-.76-1.215-1.193-2.084-1.324-1.051-.159-2.115-.234-3.139-.341zm-.028 1.302c.28.03.563.056.837.082.706.067 1.436.135 2.137.24.526.08.915.324 1.185.744a.728.728 0 0 1 .115.586c-.13.665-.267 1.342-.4 1.998-.336 1.672-.684 3.4-.98 5.118-.13.759-.487 1.118-1.318 1.324-1.131.28-2.26.533-3.607.827-.7.152-1.19.616-1.381 1.31a18.928 18.928 0 0 0-.633 3.924c-.164 2.664-.122 4.723.135 6.678.058.436.143.851.226 1.252.043.208.084.404.12.6.124.675.59 1.15 1.28 1.304l.564.126c1.125.25 2.288.508 3.412.797.653.168.864.484.967.706.055.122.1.347.135.529.445 2.268.899 4.609 1.39 7.156.068.358-.155.729-.572.942-.329.17-.748.229-1.262.289-1.084.128-1.961.187-2.76.187-.424 0-.835-.017-1.223-.05a6.626 6.626 0 0 1-.73-.106c-.372-.074-.635-.226-.852-.49-.82-.994-1.484-2.162-2.028-3.571-.806-2.088-1.33-4.414-1.647-7.324-.42-3.868-.469-7.948-.144-12.128.23-2.952.657-5.35 1.34-7.545.57-1.828 1.18-3.129 1.983-4.216.19-.258.414-.523.686-.812.177-.187.467-.288 1.003-.345.458-.05.93-.074 1.429-.1.193-.01.391-.02.593-.032"/><path id="kt98b" d="M1021.263 347.123c-.652 0-1.305.038-1.959.12-.667.084-1.303.267-1.791.788-.748.798-1.332 1.702-1.808 2.68-1.147 2.352-1.74 4.866-2.128 7.434-.433 2.856-.574 5.733-.577 8.62.003 2.53.113 5.053.422 7.566.263 2.135.66 4.24 1.347 6.283.474 1.41 1.09 2.744 1.939 3.976.727 1.056 1.685 1.607 2.967 1.683.42.025.84.036 1.258.036 1.017 0 2.03-.068 3.043-.189.638-.075 1.269-.17 1.836-.508.807-.483 1.263-1.347 1.1-2.206-.484-2.532-.983-5.062-1.48-7.593a1.866 1.866 0 0 0-.144-.441c-.348-.729-.956-1.178-1.706-1.376-1.371-.36-2.758-.66-4.141-.974-.171-.04-.256-.106-.288-.273-.126-.653-.289-1.302-.38-1.96-.259-1.875-.304-3.76-.209-5.65.075-1.472.242-2.932.66-4.354.047-.161.126-.232.295-.269 1.276-.278 2.555-.55 3.823-.862 1.246-.307 2.048-1.015 2.28-2.372.408-2.37.915-4.722 1.368-7.085a1.97 1.97 0 0 0-.001-.796c-.258-1.112-1.024-1.746-2.1-1.936-1.202-.212-2.411-.342-3.626-.342zm.001 1.299c1.059 0 2.17.105 3.398.322.773.136.97.558 1.062.95a.713.713 0 0 1-.01.26c-.16.837-.331 1.69-.497 2.516-.3 1.5-.61 3.051-.874 4.593-.132.767-.487 1.127-1.311 1.33-1.07.262-2.173.502-3.24.734l-.55.12a1.624 1.624 0 0 0-1.264 1.172c-.392 1.331-.617 2.81-.71 4.655-.108 2.122-.036 4.048.219 5.892.065.48.163.94.258 1.385.047.222.091.433.133.644.128.667.593 1.139 1.276 1.294l.733.164c1.11.25 2.258.508 3.365.8.421.11.696.326.863.679a.549.549 0 0 1 .043.132l.188.953c.426 2.174.867 4.421 1.29 6.633.056.297-.14.637-.49.846-.344.205-.802.273-1.322.335-1.024.121-1.97.18-2.891.18-.399 0-.796-.012-1.182-.034-.877-.052-1.467-.388-1.973-1.123-.723-1.05-1.304-2.246-1.777-3.653-.59-1.755-1-3.67-1.29-6.029-.274-2.231-.41-4.655-.412-7.406.003-3.237.181-5.915.562-8.427.446-2.943 1.067-5.12 2.01-7.059.457-.935.976-1.706 1.589-2.36.197-.21.489-.323 1.006-.388.578-.074 1.183-.11 1.798-.11"/><path id="kt98c" d="M1033.142 366.704l-2.139-2.115c-.27-.268-.54-.537-.808-.808-.442-.448-.476-1.015-.085-1.407.392-.393.956-.364 1.406.083 1.507 1.504 3.01 3.011 4.518 4.515.238.238.487.464.741.706-.072.083-.114.136-.16.183l-5.105 5.106c-.4.4-.89.462-1.287.17a.913.913 0 0 1-.286-1.156c.075-.142.187-.27.302-.385.901-.91 1.808-1.814 2.714-2.722.059-.06.114-.121.216-.228h-.324c-2.83 0-5.66-.001-8.492.002-.424 0-.77-.137-.964-.53-.313-.63.136-1.331.867-1.344.84-.014 1.68-.002 2.52-.002l6.18-.001h.15z"/></defs><g><g transform="translate(-1012 -346)"><g><g><use fill="#6d6b6b" xlink:href="#kt98a"/><use fill="#fff" fill-opacity="0" stroke="#6d6b6b" stroke-miterlimit="50" xlink:href="#kt98a"/></g><g><use fill="#6d6b6b" xlink:href="#kt98b"/><use fill="#fff" fill-opacity="0" stroke="#6d6b6b" stroke-miterlimit="50" xlink:href="#kt98b"/></g><g><use fill="#6d6b6b" xlink:href="#kt98c"/><use fill="#fff" fill-opacity="0" stroke="#6d6b6b" stroke-miterlimit="50" xlink:href="#kt98c"/></g></g></g></g></svg>