<svg xmlns="http://www.w3.org/2000/svg" xmlns:xlink="http://www.w3.org/1999/xlink" width="44" height="37" viewBox="0 0 44 37"><defs><path id="6lxya" d="M1044.998 531.818a13.022 13.022 0 0 0-9.595 5.577 1.11 1.11 0 0 0 1.831 1.255 10.808 10.808 0 0 1 7.98-4.624 10.903 10.903 0 1 1 6.522 20.257 14.941 14.941 0 0 0-5.461 5.48l-.036.062a11.743 11.743 0 0 0-1.064 2.713 4.402 4.402 0 0 1-4.434 3.25 4.457 4.457 0 0 1-3.462-1.929 1.109 1.109 0 0 0-1.818 1.26 6.685 6.685 0 0 0 5.2 2.881h.258a6.607 6.607 0 0 0 6.397-4.877 9.607 9.607 0 0 1 .86-2.217l.036-.062a12.72 12.72 0 0 1 4.655-4.655c6.255-3.657 8.36-11.692 4.704-17.947a13.12 13.12 0 0 0-12.573-6.438z"/><path id="6lxyb" d="M1041.637 549.818l-3.698 2.248a1.108 1.108 0 0 0 1.153 1.893l3.693-2.243a4.163 4.163 0 0 0-2.447-7.715c.07-.243.161-.48.27-.71a6.283 6.283 0 0 1 5.05-3.582h.054a5.2 5.2 0 0 1 3.103 9.67c-3.547 2.093-5.897 4.806-7.032 8.07a1.111 1.111 0 1 0 2.102.722c.966-2.793 2.953-5.046 6.065-6.89a7.417 7.417 0 0 0-4.434-13.784h-.057a8.512 8.512 0 0 0-6.846 4.85 6.94 6.94 0 0 0-.665 3.246 1.113 1.113 0 0 0 1.685.887 1.945 1.945 0 1 1 2.004 3.334z"/><path id="6lxyc" d="M1020.32 558.752c1.149 0 2.084.815 2.084 1.822 0 1.006-.935 1.822-2.084 1.822-1.148 0-2.084-.816-2.084-1.822 0-1.007.932-1.822 2.084-1.822zm4.296-10.539c0-.108.067-.203.169-.24l8.193-2.926v2.142l-8.362 2.97zm6.278 11.257c-1.148 0-2.083-.816-2.083-1.822 0-1.007.935-1.822 2.083-1.822 1.149 0 2.084.815 2.084 1.822 0 1.006-.935 1.822-2.084 1.822zm-10.574 5.143c2.372 0 4.3-1.813 4.3-4.04v-8.064l8.363-2.97v4.58a4.493 4.493 0 0 0-2.084-.51c-2.372 0-4.3 1.813-4.3 4.039 0 2.225 1.928 4.039 4.3 4.039s4.3-1.814 4.3-4.04v-12.6a2.217 2.217 0 0 0-2.943-2.074l-8.212 2.921a2.474 2.474 0 0 0-1.64 2.328v8.827a4.49 4.49 0 0 0-2.084-.514c-2.372 0-4.3 1.813-4.3 4.039s1.928 4.039 4.3 4.039z"/></defs><g><g transform="translate(-1016 -531)"><g><use fill="#6d6b6b" xlink:href="#6lxya"/></g><g><use fill="#6d6b6b" xlink:href="#6lxyb"/></g><g><use fill="#6d6b6b" xlink:href="#6lxyc"/></g></g></g></svg>