<svg xmlns="http://www.w3.org/2000/svg" xmlns:xlink="http://www.w3.org/1999/xlink" width="39" height="46" viewBox="0 0 39 46"><defs><path id="5ejma" d="M1329.767 356.335a16.735 16.735 0 0 1 7.762-8.816c-.094.885-.178 1.785-.25 2.688a14.745 14.745 0 0 0-1.98 1.602 14.584 14.584 0 0 0-4.492 10.298 14.582 14.582 0 0 0 4.108 10.457l.43.448-2.721 9.552 17.29 4.936 1.627-5.725h6.92c.967 0 1.752-.785 1.752-1.751v-5.454a1.85 1.85 0 0 1 1.274-1.763l2.216-.745-2.749-6.161a8.625 8.625 0 0 1-.754-3.557 14.673 14.673 0 0 0-8.714-13.412c.087-.755.181-1.506.282-2.244a16.918 16.918 0 0 1 10.632 15.687c0 .928.191 1.828.57 2.675l2.604 5.846a2.459 2.459 0 0 1-1.47 3.33l-1.704.566v5.204a3.943 3.943 0 0 1-3.938 3.939h-5.291l-1.018 3.65a2.661 2.661 0 0 1-3.306 1.836l-16.39-4.657c-1.386-.403-2.2-1.884-1.791-3.295l2.248-7.886-.241-.283a16.854 16.854 0 0 1-2.564-4.068 16.748 16.748 0 0 1-.342-12.897z"/><path id="5ejmb" d="M1351.173 375.993a1.921 1.921 0 0 1-.266-.82l-.031-.35-.3-.183a12.804 12.804 0 0 1-4.715-5.076l-.237-.46-.508.094a5.204 5.204 0 0 1-6.055-4.17 5.202 5.202 0 0 1 2.173-5.23l.301-.207v-.366c.004-4.47.293-8.984.858-13.426.637-.12 1.285-.205 1.93-.25.4-.03.797-.06 1.206-.045.571 0 1.145.029 1.715.086a100.235 100.235 0 0 0-.94 13.33l-.002.413.362.2a5.162 5.162 0 0 1 2.488 3.1 5.162 5.162 0 0 1-.433 3.951 5.17 5.17 0 0 1-1.372 1.608l-.457.354.264.514a11.138 11.138 0 0 0 3.94 4.304l.362.23.368-.222a1.898 1.898 0 0 1 1.444-.217 1.911 1.911 0 0 1 .525 3.488 1.912 1.912 0 0 1-2.62-.65z"/></defs><g><g transform="translate(-1328 -345)"><g><use fill="#6d6b6b" xlink:href="#5ejma"/><use fill="#fff" fill-opacity="0" stroke="#6d6b6b" stroke-miterlimit="50" stroke-width=".5" xlink:href="#5ejma"/></g><g><use fill="#6d6b6b" xlink:href="#5ejmb"/><use fill="#fff" fill-opacity="0" stroke="#6d6b6b" stroke-miterlimit="50" stroke-width=".5" xlink:href="#5ejmb"/></g></g></g></svg>