<svg xmlns="http://www.w3.org/2000/svg" xmlns:xlink="http://www.w3.org/1999/xlink" width="45" height="41" viewBox="0 0 45 41"><defs><path id="jhhxa" d="M733.534 351.636a1.131 1.131 0 1 0 0-2.264 1.131 1.131 0 1 0 0 2.264z"/><path id="jhhxb" d="M753.033 381.427c0 1.21-.98 2.19-2.19 2.19h-34.545a2.19 2.19 0 0 1-2.19-2.19V357.13c0-1.21.98-2.19 2.19-2.19h11.556v2.625h-2.15a1.131 1.131 0 1 0 0 2.263h15.651a1.131 1.131 0 1 0 0-2.263h-2.15v-2.625h11.637c1.21 0 2.191.98 2.191 2.19zm-21.4-34.182h3.784c.84 0 1.52.68 1.52 1.52v8.804h-6.82v-8.785c0-.84.68-1.52 1.52-1.52zm7.572 5.432v-3.893a3.789 3.789 0 0 0-3.783-3.784h-3.784a3.789 3.789 0 0 0-3.784 3.784v3.893h-11.556a4.459 4.459 0 0 0-4.453 4.453v24.297a4.459 4.459 0 0 0 4.453 4.454h34.544a4.459 4.459 0 0 0 4.454-4.454V357.13a4.459 4.459 0 0 0-4.454-4.453z"/><path id="jhhxc" d="M722.49 368.532a2.358 2.358 0 1 1 2.358 2.358 2.358 2.358 0 0 1-2.358-2.358zm5.685 3.195a4.622 4.622 0 1 0-6.658 0 7.048 7.048 0 0 0-3.711 6.201 1.131 1.131 0 0 0 2.263 0 4.778 4.778 0 0 1 9.555 0 1.131 1.131 0 1 0 2.263 0 7.048 7.048 0 0 0-3.712-6.2z"/><path id="jhhxd" d="M746.764 364.811h-10.808a1.131 1.131 0 1 0 0 2.263h10.808a1.131 1.131 0 1 0 0-2.263z"/><path id="jhhxe" d="M746.764 370.238h-10.808a1.131 1.131 0 1 0 0 2.263h10.808a1.131 1.131 0 1 0 0-2.263z"/><path id="jhhxf" d="M746.764 375.66h-10.808a1.131 1.131 0 1 0 0 2.264h10.808a1.131 1.131 0 1 0 0-2.263z"/></defs><g><g transform="translate(-711 -345)"><g><use fill="#6d6b6b" xlink:href="#jhhxa"/></g><g><use fill="#6d6b6b" xlink:href="#jhhxb"/></g><g><use fill="#6d6b6b" xlink:href="#jhhxc"/></g><g><use fill="#6d6b6b" xlink:href="#jhhxd"/></g><g><use fill="#6d6b6b" xlink:href="#jhhxe"/></g><g><use fill="#6d6b6b" xlink:href="#jhhxf"/></g></g></g></svg>