<svg xmlns="http://www.w3.org/2000/svg" xmlns:xlink="http://www.w3.org/1999/xlink" width="27" height="40" viewBox="0 0 27 40"><defs><path id="6phna" d="M1341.72 548.775c0 2.59 2.1 4.646 4.646 4.646h.09c2.59 0 4.646-2.1 4.646-4.646v-8.846c0-2.592-2.1-4.647-4.647-4.647h-.089a4.643 4.643 0 0 0-4.646 4.647zm-2.77 0v-8.846c0-4.11 3.35-7.417 7.416-7.417h.09c4.11 0 7.416 3.351 7.416 7.417v8.846c0 4.11-3.351 7.416-7.417 7.416h-.089c-4.066 0-7.416-3.35-7.416-7.416zm8.89 12.286l.045 6.657h4.11c.76 0 1.385.625 1.385 1.385s-.625 1.385-1.385 1.385h-10.9c-.76 0-1.386-.626-1.386-1.385 0-.76.626-1.385 1.385-1.385h4.021l-.045-6.657c-6.12-.715-10.856-5.898-10.856-12.197v-.268c0-.76.67-1.385 1.43-1.34.759 0 1.384.67 1.34 1.43v.223c0 5.137 4.11 9.337 9.203 9.516.09 0 .179-.045.224-.045.089 0 .178 0 .268.045 5.138-.134 9.293-4.334 9.293-9.516v-.134c0-.76.58-1.385 1.385-1.43.759 0 1.385.58 1.43 1.385v.179c0 6.254-4.781 11.482-10.947 12.152z"/></defs><g><g transform="translate(-1333 -532)"><use fill="#6d6b6b" xlink:href="#6phna"/><use fill="#fff" fill-opacity="0" stroke="#e6e5e5" stroke-miterlimit="50" stroke-width=".5" xlink:href="#6phna"/></g></g></svg>