<svg xmlns="http://www.w3.org/2000/svg" xmlns:xlink="http://www.w3.org/1999/xlink" width="48" height="47" viewBox="0 0 48 47"><defs><path id="ix9ba" d="M1019.586 446.89c-.678 0-1.363.29-1.971.874l-2.74 2.739a4.75 4.75 0 0 0-1.42 3.022 12.777 12.777 0 0 0 .961 5.479 33.786 33.786 0 0 0 5.933 9.884 36.458 36.458 0 0 0 12.174 9.536c2.13 1.012 4.322 1.825 6.643 1.978a5.02 5.02 0 0 0 4.257-1.625c.762-.91 1.672-1.671 2.485-2.535 1.216-1.267 1.216-2.79 0-4.007l-4.41-4.41c-.584-.608-1.255-.913-1.934-.913-.678 0-1.363.305-1.971.913l-2.74 2.739a.566.566 0 0 1-.761.153c-.557-.357-1.216-.613-1.774-.966a28.604 28.604 0 0 1-6.848-6.249 16.62 16.62 0 0 1-2.428-3.918.557.557 0 0 1 .153-.71c.966-.864 1.811-1.76 2.74-2.689 1.267-1.267 1.267-2.739 0-4.006l-2.182-2.182c-.762-.762-1.472-1.523-2.234-2.233-.582-.583-1.254-.875-1.933-.875zm0 1.856c.24 0 .47.18.62.33l.023.023.023.023c.475.442.934.91 1.419 1.408.253.258.508.52.769.78l2.182 2.182c.258.258.406.51.406.69 0 .18-.148.432-.406.69-.238.238-.47.473-.7.706-.649.659-1.263 1.281-1.927 1.878a2.397 2.397 0 0 0-.63 2.926 18.477 18.477 0 0 0 2.662 4.29 30.432 30.432 0 0 0 7.298 6.648c.352.224.714.405 1.033.565.273.137.53.266.731.395l.01.007.012.007a2.428 2.428 0 0 0 3.128-.488l2.667-2.668c.234-.234.474-.368.658-.368.232 0 .47.213.592.34l.014.014.014.014 4.41 4.41c.428.428.561.796-.039 1.421-.296.315-.613.621-.948.945-.526.508-1.07 1.033-1.581 1.64a3.165 3.165 0 0 1-2.662 1.002l-.037-.005-.038-.002c-1.747-.116-3.588-.671-5.957-1.796a34.372 34.372 0 0 1-11.553-9.05l-.012-.015-.012-.014a31.835 31.835 0 0 1-5.607-9.34l-.008-.021-.008-.02a10.983 10.983 0 0 1-.823-4.648c.062-.688.368-1.33.862-1.812l.01-.008.008-.01 2.723-2.722c.237-.224.476-.347.674-.347"/><path id="ix9bb" d="M1045.155 434.5c-2.562 0-5.14.698-7.437 2.127-6.602 4.11-8.623 12.794-4.513 19.396l-1.583 5.107a.8.8 0 0 0 .766 1.045c.08 0 .161-.012.242-.038l5.107-1.578a14.048 14.048 0 0 0 7.448 2.135c3.643 0 7.254-1.412 9.972-4.135 5.494-5.504 5.485-14.42-.02-19.914a14.068 14.068 0 0 0-9.982-4.145zm0 1.857a12.15 12.15 0 0 1 8.67 3.603 12.145 12.145 0 0 1 3.59 8.64 12.142 12.142 0 0 1-3.573 8.647 12.147 12.147 0 0 1-8.657 3.59c-2.286 0-4.522-.641-6.466-1.854l-.72-.45-.81.251-3.202.99.992-3.201.251-.811-.448-.72a12.143 12.143 0 0 1-1.529-9.23 12.144 12.144 0 0 1 5.447-7.608 12.205 12.205 0 0 1 6.455-1.847"/><path id="ix9bc" d="M1051.289 454.778c.131-.131.28-.286.397-.443l.03-.037a8.72 8.72 0 0 0 .165-11.208l-.12-.14a8.652 8.652 0 0 0-6.286-3.033 8.682 8.682 0 0 0-6.246 2.3l-.5.46-.874-.904-.61 3.702 3.693-.615-.986-.924.574-.506a6.94 6.94 0 0 1 4.843-1.739 6.902 6.902 0 0 1 5.004 2.392c2.132 2.637 2.132 6.442.014 9.063-2.374 2.763-6.369 3.238-9.306 1.12a.951.951 0 0 0-1.243.088l-.04.04a.8.8 0 0 0-.234.624.776.776 0 0 0 .306.57c3.454 2.59 8.363 2.241 11.419-.81z"/></defs><g><g transform="translate(-1012 -434)"><g><use fill="#6d6b6b" xlink:href="#ix9ba"/><use fill="#fff" fill-opacity="0" stroke="#6d6b6b" stroke-miterlimit="50" stroke-width=".5" xlink:href="#ix9ba"/></g><g><use fill="#6d6b6b" xlink:href="#ix9bb"/><use fill="#fff" fill-opacity="0" stroke="#6d6b6b" stroke-miterlimit="50" stroke-width=".5" xlink:href="#ix9bb"/></g><g><use fill="#6d6b6b" xlink:href="#ix9bc"/><use fill="#fff" fill-opacity="0" stroke="#6d6b6b" stroke-miterlimit="50" stroke-width=".5" xlink:href="#ix9bc"/></g></g></g></svg>