<svg xmlns="http://www.w3.org/2000/svg" xmlns:xlink="http://www.w3.org/1999/xlink" width="38" height="33" viewBox="0 0 38 33"><defs><path id="68m3a" d="M1331.51 461.304c-.326 0-.65.004-.97.018-1.558 0-2.557.999-2.597 2.597v3.636c0 1.119.36 2.117 1.079 2.956 1.118 1.359 2.637 2.238 4.275 2.997 3.396 1.558 6.912 2.317 10.548 2.637 1.08.096 2.153.144 3.219.144 3.82 0 7.55-.621 11.204-1.902 2.118-.76 4.115-1.678 5.753-3.116 1.2-1.04 1.838-2.278 1.758-3.916-.08-1.119 0-2.237-.04-3.316-.04-1.678-1.038-2.677-2.676-2.677h-5.874l-.092-.001c-1.544 0-2.505.991-2.505 2.598v3.636c0 .32-.08.48-.4.6-.639.159-1.238.439-1.837.558a25.078 25.078 0 0 1-5.455.583c-1.084 0-2.17-.064-3.255-.183-1.438-.16-2.837-.44-4.235-.999-.24-.12-.36-.24-.36-.56.08-1.198.04-2.396.04-3.595 0-1.718-.999-2.677-2.677-2.677h-2.916c-.666 0-1.332-.018-1.986-.018zm0 1.598c.32 0 .64.005.963.009.34.004.682.01 1.024.01h2.916c.817 0 1.079.261 1.079 1.078 0 .304.002.608.005.912.007.894.015 1.738-.041 2.577l-.004.053v.054c0 .623.216 1.475 1.243 1.988l.06.03.061.025c1.385.554 2.864.905 4.655 1.104 1.163.127 2.317.192 3.43.192 1.991 0 3.938-.208 5.785-.617a9.118 9.118 0 0 0 1.176-.346c.254-.088.495-.17.718-.227l.089-.022.085-.032c.536-.201 1.436-.74 1.436-2.095v-3.636c0-.833.348-1 .907-1h.052l.02.001H1363.063c.65 0 1.057.187 1.079 1.117V464.098c.016.424.012.863.007 1.327-.007.652-.014 1.326.035 2.024.048 1.056-.315 1.839-1.217 2.62-1.595 1.401-3.637 2.24-5.228 2.81a32.209 32.209 0 0 1-10.675 1.812c-1.01 0-2.046-.047-3.08-.138-3.81-.335-7.088-1.152-10.015-2.495-1.282-.594-2.726-1.363-3.713-2.563l-.01-.012-.01-.012c-.468-.545-.695-1.171-.695-1.916v-3.614c.028-.897.497-1.02.999-1.02h.033l.033-.002c.265-.011.56-.017.905-.017"/><path id="68m3b" d="M1342.246 445.34l-9.549-.08-.08 9.55 3.876.04.04-3.077 10.348 8.79 15.502-12.786-2.477-2.996-12.985 10.708-7.391-6.273h2.677z"/></defs><g><g transform="translate(-1328 -444)"><g><use fill="#6d6b6b" xlink:href="#68m3a"/></g><g><use fill="#6d6b6b" xlink:href="#68m3b"/></g></g></g></svg>