<svg xmlns="http://www.w3.org/2000/svg" xmlns:xlink="http://www.w3.org/1999/xlink" width="38" height="41" viewBox="0 0 38 41"><defs><path id="b5rga" d="M723.773 571.822c-3.816-3.53-6.22-6.89-6.32-7.032l-.475-.668.551-.606c3.477-3.816 7.79-1.828 9.615-.222l1.849 1.418.107-14.998v-6.012c.055-2.164 1.843-3.904 3.986-3.904a3.99 3.99 0 0 1 3.985 3.92l1.245 10.265c2.314.458 9.396 2.087 14.704 5.718l.344.236.08.41c.045.231 1.086 5.73-.215 10.973l-1.974-.49c1.001-4.034.466-8.364.26-9.689-5.9-3.868-14.2-5.277-14.284-5.292l-.751-.124-1.442-11.941c0-1.059-.894-1.953-1.952-1.953-1.05 0-1.926.851-1.953 1.897v5.994l-.136 19.093-5.176-3.977c-.356-.312-3.38-2.824-6.186-.527a51.178 51.178 0 0 0 5.519 6.017z"/><path id="b5rgb" d="M739.309 543.865a2.97 2.97 0 1 1 5.938 0 2.97 2.97 0 0 1-5.938 0z"/><path id="b5rgc" d="M745.247 534.714a2.96 2.96 0 0 0-2.97-2.97 2.96 2.96 0 0 0-2.968 2.97 2.96 2.96 0 0 0 2.969 2.969c1.667.04 2.969-1.302 2.969-2.97z"/><path id="b5rgd" d="M748.42 543.865a2.97 2.97 0 1 1 5.938 0 2.97 2.97 0 0 1-5.939 0z"/><path id="b5rge" d="M748.42 534.754a2.97 2.97 0 1 1 5.938 0 2.97 2.97 0 0 1-5.939 0z"/><path id="b5rgf" d="M754.398 534.714a2.96 2.96 0 0 0-2.969-2.97 2.96 2.96 0 0 0-2.969 2.97 2.96 2.96 0 0 0 2.97 2.969c1.626.04 2.968-1.302 2.968-2.97z"/><path id="b5rgg" d="M733.167 537.723a2.96 2.96 0 0 0 2.97-2.969 2.96 2.96 0 0 0-2.97-2.969 2.96 2.96 0 0 0-2.969 2.97c-.04 1.626 1.302 2.968 2.97 2.968z"/><path id="b5rgh" d="M751.388 550.006a2.96 2.96 0 0 0-2.969 2.97 2.96 2.96 0 0 0 2.97 2.969 2.96 2.96 0 0 0 2.969-2.97c.04-1.667-1.302-2.969-2.97-2.969z"/><path id="b5rgi" d="M751.388 540.855a2.96 2.96 0 0 0-2.969 2.97 2.96 2.96 0 0 0 2.97 2.968 2.96 2.96 0 0 0 2.969-2.969c.04-1.627-1.302-2.969-2.97-2.969z"/><path id="b5rgj" d="M736.136 534.714a2.96 2.96 0 0 0-2.969-2.97 2.96 2.96 0 0 0-2.969 2.97 2.96 2.96 0 0 0 2.97 2.969c1.626.04 2.968-1.302 2.968-2.97z"/></defs><g><g transform="translate(-717 -531)"><g><g><use fill="#6d6b6b" xlink:href="#b5rga"/></g></g><g><use fill="#6d6b6b" xlink:href="#b5rgb"/></g><g><use fill="#6d6b6b" xlink:href="#b5rgc"/></g><g><use fill="#6d6b6b" xlink:href="#b5rgd"/></g><g><use fill="#6d6b6b" xlink:href="#b5rge"/></g><g><use fill="#6d6b6b" xlink:href="#b5rgf"/></g><g><use fill="#6d6b6b" xlink:href="#b5rgg"/></g><g><use fill="#6d6b6b" xlink:href="#b5rgh"/></g><g><use fill="#6d6b6b" xlink:href="#b5rgf"/></g><g><use fill="#6d6b6b" xlink:href="#b5rge"/></g><g><use fill="#6d6b6b" xlink:href="#b5rgi"/></g><g><use fill="#6d6b6b" xlink:href="#b5rgg"/></g><g><use fill="#6d6b6b" xlink:href="#b5rgj"/></g><g><use fill="#6d6b6b" xlink:href="#b5rgj"/></g></g></g></svg>