<svg xmlns="http://www.w3.org/2000/svg" xmlns:xlink="http://www.w3.org/1999/xlink" width="16" height="25" viewBox="0 0 16 25"><defs><path id="ilbva" d="M1206.972 707.439a.466.466 0 0 1-.47-.47c0-.276.222-.47.47-.47.277 0 .47.222.47.47 0 .277-.22.47-.47.47zm0-1.74c-.69 0-1.27.58-1.27 1.27 0 .691.58 1.271 1.27 1.271.691 0 1.271-.58 1.271-1.27 0-.719-.58-1.271-1.27-1.271zm-1.077-17.845h2.1a.378.378 0 0 0 .386-.387.378.378 0 0 0-.386-.387h-2.1a.378.378 0 0 0-.387.387c0 .22.194.414.387.387zm-3.867 1.712H1212v15.083h-9.972zm-.415 15.884h10.746a.378.378 0 0 0 .387-.387V689.18a.378.378 0 0 0-.387-.387h-10.746a.378.378 0 0 0-.386.387v15.883c0 .194.165.387.386.387zm-1.05-18.066c0-.884.719-1.602 1.603-1.602h9.668c.884 0 1.602.718 1.602 1.602v19.447c0 .884-.718 1.602-1.602 1.602h-9.668a1.603 1.603 0 0 1-1.602-1.602zm1.603 21.823h9.668a2.405 2.405 0 0 0 2.404-2.403v-19.448a2.405 2.405 0 0 0-2.404-2.403h-9.668a2.405 2.405 0 0 0-2.403 2.403v19.448c.027 1.353 1.077 2.403 2.403 2.403z"/></defs><g><g transform="translate(-1199 -685)"><use fill="#898888" xlink:href="#ilbva"/></g></g></svg>